<svg viewBox="0 0 100 100" xmlns="http://www.w3.org/2000/svg" class="inline-flex h-4-em text-dark-tertiary-acc">
    <g xmlns="http://www.w3.org/2000/svg" fill="#EA592D" fill-rule="evenodd">
        <path d="m28.34 45.38a8.91 8.91 0 0 1 2.59-3.79c1.2-1 3.93-1 3.93-1h10l11.25-36.54a3.12 3.12 0 0 0 -1.42-3.62 3.13 3.13 0 0 0 -3.84.57l-50 53.11a3.12 3.12 0 0 0 2.28 5.26h20.76z" opacity=".4"></path>
        <path d="m44.85 40.63h20.77a3.12 3.12 0 0 1 2.28 5.26l-50 53.11a3.13 3.13 0 0 1 -5.26-3l11.25-36.63 4.45-14a8.91 8.91 0 0 1 2.59-3.79c1.2-1 3.93-1 3.93-1z"></path>
    </g>
</svg>