<svg aria-hidden="true" viewBox="0 0 512 512" xmlns="http://www.w3.org/2000/svg" width="5em" height="5em" ariaLabel="Bug Bounty Program" fill="#14b89f" class="tw-y4m5rk"><path xmlns="http://www.w3.org/2000/svg" d="m159.12 338.69 24.8-16.54a78.87 78.87 0 0 1 -6.77-22.72l-30.88 4.41a16 16 0 0 1 -4.54-31.68l34.27-4.9v-.76l98.94 98.95a76.89 76.89 0 0 1 -71.68-17.73l-26.39 17.59c-.15.11-.31.21-.47.31a16 16 0 0 1 -17.28-26.93zm224.72-48.42a16 16 0 0 0 -13.57-18.11l-34.27-4.9v-22.36l34.27-4.9a16 16 0 1 0 -4.54-31.68l-30.54 4.36a79.31 79.31 0 0 0 -6.85-22.85l24.54-16.36a16 16 0 1 0 -17.29-26.93l-.46.31-26 17.34a79.9 79.9 0 0 0 -102.64-3l139.83 139.88 19.41 2.77a16 16 0 0 0 18.11-13.57z" opacity=".4"></path><path xmlns="http://www.w3.org/2000/svg" d="m256 8c-137 0-248 111-248 248s111 248 248 248 248-111 248-248-111-248-248-248zm0 432c-101.46 0-184-82.54-184-184a182.84 182.84 0 0 1 33.38-105.37l256 256a182.86 182.86 0 0 1 -105.38 33.37zm150.62-78.63-256-256a182.84 182.84 0 0 1 105.38-33.37c101.46 0 184 82.54 184 184a182.84 182.84 0 0 1 -33.38 105.37z"></path></svg>