<svg viewBox="0 0 800 900" xmlns="http://www.w3.org/2000/svg" class="max-h-full w-3/4 lg:w-1/2 sm:mr-12 md:text-dark-primary-txt"><linearGradient xmlns="http://www.w3.org/2000/svg" x1="72.731" y1="192.211" x2="727.269" y2="707.804" gradientUnits="userSpaceOnUse" id="prefix__a"><stop offset=".079" stop-color="#14b89f" stop-opacity="0"></stop><stop offset=".604" stop-color="#14b89f" stop-opacity=".6"></stop><stop offset="1" stop-color="#14b89f"></stop></linearGradient><path xmlns="http://www.w3.org/2000/svg" fill="url(#prefix__a)" d="M400 898.974C270.354 823.943 140.707 748.912 11.006 673.975l.232.402c.064-149.585.077-299.169.1-448.754l-.282.489A3436033.361 3436033.361 0 00400.184 1.606h-.593c129.78 74.844 259.564 149.679 389.353 224.506l-.283-.489c.024 149.585.037 299.169.101 448.754l.232-.402C659.293 748.912 529.647 823.943 400 898.974zm0 0c129.838-74.7 259.675-149.4 389.458-224.195a.465.465 0 00.233-.402c.063-149.585.076-299.169.1-448.754a.566.566 0 00-.283-.489A3410000.433 3410000.433 0 00400.184.577a.595.595 0 00-.593 0 3445863.498 3445863.498 0 00-389.1 224.557.567.567 0 00-.282.489c.024 149.585.037 299.169.1 448.754 0 .166.09.32.233.402C140.325 749.574 270.163 824.274 400 898.974zm-.039.993l.401-.049C530.329 825.144 660.295 750.369 790.207 675.5a.448.448 0 00.17-.17l.25-.432a.455.455 0 00.063-.233c.063-149.777.076-299.553.1-449.33a.554.554 0 00-.076-.283l-.25-.432a.542.542 0 00-.207-.207A3354053.115 3354053.115 0 00400.433-.432a.574.574 0 00-.297-.08h-.498a.58.58 0 00-.297.08A3450477.857 3450477.857 0 009.743 224.413a.552.552 0 00-.207.207l-.25.432a.553.553 0 00-.076.283c.024 149.777.037 299.553.1 449.33 0 .084.02.16.063.233l.25.432a.453.453 0 00.17.17c129.912 74.869 259.878 149.644 389.845 224.418l.386.068a1.508 1.508 0 01-.063-.019zm0 0l.063.019-.386-.069c-129.775-75.105-259.551-150.21-389.38-225.221l.17.17a166.74 166.74 0 00-.25-.433l.062.232c.063-149.777.076-299.553.1-449.33l-.076.282.25-.432-.207.206A3419842.464 3419842.464 0 00399.935.597l-.297.079h.499l-.297-.08c129.946 74.94 259.897 149.872 389.853 224.796l-.207-.207.25.432-.076-.282c.024 149.777.037 299.553.1 449.33l.063-.232-.25.433.17-.17c-129.83 75.011-259.605 150.116-389.381 225.221l-.401.05zm15.613-3.99C284.191 825.943 152.807 755.909 21.373 685.971l.246.394C16.494 537.776 11.318 389.189 6.153 240.602l-.265.499A3294094.536 3294094.536 0 00384.63 4.595l-.593.02a3544545.32 3544545.32 0 00394.542 209.503l-.299-.479c5.212 148.585 10.414 297.171 15.666 445.755l.218-.41C667.93 737.92 541.752 816.949 415.574 895.977zm0 0c126.38-78.704 252.761-157.408 379.084-236.205a.466.466 0 00.218-.41C789.75 510.773 784.575 362.187 779.41 213.6a.566.566 0 00-.3-.479C647.61 143.261 516.105 73.409 384.595 3.567a.595.595 0 00-.593.02A3545070.06 3545070.06 0 005.289 240.144a.567.567 0 00-.265.499c5.212 148.585 10.414 297.171 15.666 445.755.006.166.1.317.247.394 131.511 69.793 263.074 139.49 394.637 209.186zm-.006.995l.4-.063c126.507-78.783 253.014-157.567 379.463-236.443a.445.445 0 00.164-.175l.235-.441a.457.457 0 00.054-.235c-5.132-148.78-10.314-297.559-15.486-446.338a.555.555 0 00-.086-.28l-.264-.424a.554.554 0 00-.214-.199A3550394.803 3550394.803 0 00384.809 2.549a.575.575 0 00-.299-.069l-.499.018a.574.574 0 00-.293.09A3291160.928 3291160.928 0 004.516 239.449a.554.554 0 00-.2.213l-.234.441a.552.552 0 00-.066.285C9.235 389.166 14.444 537.944 19.702 686.72a.453.453 0 00.07.23l.266.424a.453.453 0 00.175.164c131.644 69.862 263.338 139.63 395.033 209.397l.388.054-.066-.017zm0 0l.066.017a51.758 51.758 0 01-.388-.056C283.731 826.83 152.215 756.726 20.649 686.717l.176.164-.264-.423.07.23c-5.132-148.781-10.315-297.56-15.486-446.339l-.066.285.234-.441-.199.214A3459588.317 3459588.317 0 00384.347 3.595l-.294.09.499-.018-.3-.069c131.68 69.933 263.363 139.858 395.052 209.774l-.214-.2.265.424-.086-.28c5.219 148.778 10.428 297.556 15.686 446.332l.055-.235-.235.441.164-.175c-126.362 79.015-252.667 158.122-378.971 237.229l-.4.064zm15.181-7.246C298.635 825.117 166.522 760.507 34.361 695.995l.26.385C24.439 549.872 14.208 403.367 3.987 256.862l-.247.508C125.658 175.2 247.57 93.023 369.478 10.837l-.592.042c132.232 64.414 264.469 128.82 396.709 193.217l-.316-.469c10.268 146.502 20.526 293.005 30.834 439.504l.203-.417C674.42 724.991 552.584 807.359 430.749 889.726zm0 0c122.049-82.05 244.098-164.101 366.087-246.242a.464.464 0 00.203-.418c-10.181-146.508-20.412-293.012-30.633-439.517a.567.567 0 00-.316-.469A3508514.147 3508514.147 0 00369.406 9.811a.595.595 0 00-.592.042A3492005.87 3492005.87 0 003.108 256.433a.567.567 0 00-.248.508c10.27 146.502 20.526 293.005 30.834 439.504a.466.466 0 00.26.385c132.233 64.364 264.514 128.63 396.795 192.896zm.027.995l.398-.076c122.173-82.135 244.347-164.27 366.459-246.494a.457.457 0 00.158-.182l.219-.449a.447.447 0 00.046-.236c-10.195-146.699-20.44-293.396-30.674-440.093a.548.548 0 00-.095-.276l-.279-.414a.546.546 0 00-.221-.192A3394000.921 3394000.921 0 00369.584 8.787a.579.579 0 00-.302-.058l-.497.035a.581.581 0 00-.291.1A3459949.55 3459949.55 0 002.311 255.766a.548.548 0 00-.192.221l-.22.449a.548.548 0 00-.055.287c10.282 146.694 20.553 293.388 30.874 440.079a.457.457 0 00.078.228l.28.414a.451.451 0 00.181.157c132.368 64.43 264.783 128.762 397.198 193.094l.391.042a1.435 1.435 0 01-.07-.016zm0 0l.07.016-.39-.043C298.208 826.019 165.96 761.344 33.664 696.766l.182.158-.28-.414.079.227C23.45 550.037 13.205 403.341 2.97 256.644l-.056.287.22-.449-.193.221A3166399.264 3166399.264 0 00369.158 9.848l-.29.1.498-.035-.302-.058a3307587.541 3307587.541 0 00397.228 193.469l-.221-.192.28.414-.096-.276c10.282 146.694 20.553 293.388 30.874 440.079l.046-.236-.219.449.158-.181c-122.021 82.361-243.981 164.812-365.94 247.263l-.398.077zm29.055-15.003c-132.927-53.875-265.854-107.75-398.822-161.525l.286.366c-19.87-141.845-39.79-283.684-59.702-425.524l-.211.524A3208067.109 3208067.109 0 00340.437 24.826l-.588.083A3092752.113 3092752.113 0 00738.953 185.9l-.348-.445c19.958 141.833 39.905 283.668 59.901 425.496l.174-.431c-112.994 88.342-225.922 176.77-338.849 265.198zm0 0c113.163-88.127 226.325-176.253 339.421-264.466a.465.465 0 00.174-.431c-19.871-141.845-39.792-283.683-59.702-425.523a.565.565 0 00-.348-.445A3151323.337 3151323.337 0 00340.294 23.808a.596.596 0 00-.588.083A3196003.184 3196003.184 0 00.686 288.669a.567.567 0 00-.211.524c19.957 141.833 39.904 283.668 59.9 425.495a.464.464 0 00.287.366C193.69 768.676 326.76 822.197 459.83 875.718zm.092.992l.394-.103c113.281-88.22 226.562-176.44 339.777-264.745a.453.453 0 00.145-.192l.187-.463a.454.454 0 00.029-.239c-19.898-142.036-39.845-284.064-59.782-426.095a.561.561 0 00-.114-.269l-.308-.393a.543.543 0 00-.234-.176A3159779.341 3159779.341 0 00340.4 22.774a.58.58 0 00-.305-.038l-.494.07a.582.582 0 00-.283.12A3171211.344 3171211.344 0 00-.156 288.06a.55.55 0 00-.176.234l-.187.463a.548.548 0 00-.035.29C19.43 431.07 39.403 573.095 59.426 715.113a.448.448 0 00.094.221l.308.394a.45.45 0 00.192.144c133.17 53.679 266.38 107.257 399.59 160.834l.392.016-.078-.012zm0 0l.078.012-.392-.017C326.542 822.774 193.475 768.842 60.368 715.011l.192.145-.307-.394.094.222C40.449 572.948 20.5 430.919.564 288.889l-.036.29.188-.463-.176.234A3299737.158 3299737.158 0 00340.049 23.862l-.282.12.493-.07-.305-.037a3205308.97 3205308.97 0 00399.64 161.207 35.758 35.758 0 01-.234-.176l.308.394-.115-.269c19.984 142.023 39.958 284.048 59.981 426.066l.029-.238-.186.463.144-.192c-113.113 88.435-226.159 176.955-339.206 265.476l-.393.104zm52.566-34.414c-132.075-33.093-264.15-66.187-396.251-99.175l.335.323C79.155 612.725 41.69 482.02 4.235 351.312l-.137.548c94.593-97.879 189.179-195.766 283.758-293.659l-.57.164a2831896.3 2831896.3 0 00396.452 98.612l-.407-.393c37.501 130.695 74.992 261.393 112.531 392.077l.112-.451c-94.547 97.978-189.016 196.032-283.485 294.086zm0 0c94.744-97.788 189.488-195.577 284.153-293.441a.465.465 0 00.113-.45c-37.417-130.719-74.883-261.424-112.338-392.132a.564.564 0 00-.407-.392 2797498.564 2797498.564 0 00-396.438-98.668.595.595 0 00-.57.163A2902000.104 2902000.104 0 003.286 351.075a.566.566 0 00-.137.548c37.5 130.695 74.992 261.393 112.53 392.077a.464.464 0 00.335.322c132.141 32.829 264.308 65.551 396.475 98.274zm.241.976l.36-.159c94.849-97.899 189.699-195.797 284.471-293.771a.45.45 0 00.116-.21l.121-.485a.448.448 0 00-.004-.241c-37.47-130.903-74.988-261.793-112.496-392.686a.566.566 0 00-.151-.25l-.36-.347a.547.547 0 00-.255-.142c-132.331-32.945-264.663-65.88-396.998-98.807a.58.58 0 00-.308.005l-.479.138a.575.575 0 00-.263.158A2720343.467 2720343.467 0 002.367 350.59a.55.55 0 00-.142.255l-.12.485a.549.549 0 00.005.292c37.553 130.88 75.097 261.762 112.689 392.631a.45.45 0 00.124.206l.359.347a.47.47 0 00.211.117c132.289 32.865 264.604 65.625 396.92 98.385l.317-.035zm0 0l-.317.034c-132.223-33.13-264.447-66.26-396.696-99.286l.21.117-.359-.347.124.206C78.222 613.093 40.703 482.203 3.195 351.31l.005.292.121-.484-.141.256C97.906 253.356 192.625 155.331 287.338 57.3l-.263.158.479-.137-.307.005c132.335 32.927 264.672 65.844 397.012 98.751l-.256-.141.359.346-.15-.25c37.554 130.879 75.097 261.762 112.689 392.631l-.004-.241-.121.485.117-.211c-94.653 98.089-189.229 196.253-283.804 294.416l-.359.16z"></path></svg>