<svg aria-hidden="true" xmlns="http://www.w3.org/2000/svg" viewBox="0 0 448 512" width="1.75em" height="1.75em" arialabel="icon" fill="#7289da" class="tw-jp9osg" ariaLabel="icon"><path xmlns="http://www.w3.org/2000/svg" d="M448.074 52.755v459.264c-64.494-56.994-43.868-38.128-118.784-107.776l13.568 47.36H52.554c-28.928 0-52.48-23.552-52.48-52.736V52.754C.074 23.572 23.626.02 52.554.02h343.04c28.928 0 52.48 23.551 52.48 52.736zM327.668 134.88c-19.418-8.881-40.041-15.354-61.567-18.966-2.71 4.666-5.72 10.988-7.828 15.956-22.896-3.312-45.625-3.312-68.205 0-2.108-4.968-5.269-11.29-7.828-15.956-21.676 3.612-42.299 10.085-61.582 18.966-38.987 57.503-49.524 113.651-44.256 169.046 25.891 18.816 50.88 30.257 75.431 37.783a183.282 183.282 0 0016.107-26.042c-8.881-3.312-17.311-7.376-25.439-12.193a97.053 97.053 0 006.171-4.816c49.073 22.429 102.225 22.429 150.696 0 2.107 1.655 4.065 3.311 6.172 4.816-8.129 4.817-16.558 8.881-25.439 12.193a183.368 183.368 0 0016.106 26.042c24.537-7.526 49.674-18.967 75.431-37.783 6.472-64.126-10.252-119.822-43.97-169.046zM174.714 269.755c-14.752 0-26.795-13.397-26.795-29.804 0-16.408 11.742-29.806 26.795-29.806 14.903 0 27.095 13.398 26.794 29.806 0 16.407-11.891 29.804-26.794 29.804zm98.914 0c-14.753 0-26.81-13.397-26.81-29.804 0-16.408 11.756-29.806 26.81-29.806 14.902 0 27.095 13.398 26.794 29.806 0 16.407-11.741 29.804-26.794 29.804z" fill-rule="evenodd"></path></svg>