<svg aria-hidden="true" viewBox="0 0 512 512" xmlns="http://www.w3.org/2000/svg" width="5em" height="5em" ariaLabel="Documentation" fill="#8b5cf6" class="tw-wq8nvg"><path xmlns="http://www.w3.org/2000/svg" d="m160 179v-3zm349 96c-21-47-48-152-73-187-39-55-102-88-170-88h-74c-106 0-192 86-192 192 0 54 23 106 64 143v177h256v-64h64c35 0 64-29 64-64v-64h32c11 0 21-6 27-15s7-20 2-30zm-173-67h-51c2 5 3 10 3 16 0 26-22 48-48 48-6 0-11-1-16-3v51h-64v-51c-5 2-10 3-16 3-26 0-48-22-48-48 0-1 0-2 0-3-22-7-35-30-31-53s24-40 47-40c0-26 22-48 48-48 8 0 16 2 23 6 9-13 24-22 41-22s32 9 41 22c12-7 27-8 40-3s24 16 28 29h3c26 0 48 22 48 48s-22 48-48 48z" opacity=".4"></path><path xmlns="http://www.w3.org/2000/svg" d="m336 208h-51c2 5 3 10 3 16 0 26-21 48-48 48-5 0-11-1-16-3v51h-64v-51c-5 2-10 3-16 3-26 0-48-22-48-48 0-1 0-2 0-3-22-7-35-30-31-53s24-40 47-40c0-26 22-48 48-48 8 0 16 2 24 6 8-13 24-22 40-22 17 0 32 9 41 22 12-7 27-8 40-3s24 16 28 29h3c27 0 48 22 48 48s-21 48-48 48z"></path></svg>