<svg viewBox="0 0 100 88.88" xmlns="http://www.w3.org/2000/svg" class="inline-flex h-4-em text-dark-quaternary-acc"><g xmlns="http://www.w3.org/2000/svg" fill="#8B5CF6"><path opacity=".4" d="M50,79.41,30.3,88.05a9.6,9.6,0,0,1-7.82,0L5.81,80.73A9.71,9.71,0,0,1,0,71.84V51.14a9.72,9.72,0,0,1,6.28-9.08l16.65-6.47a1.14,1.14,0,0,0,.68-.07V16A9.72,9.72,0,0,1,29.88,7L46.55.63a9.76,9.76,0,0,1,6.9,0L70.12,7A9.72,9.72,0,0,1,76.39,16V35.52a1.14,1.14,0,0,0,.68.07l16.66,6.47A9.72,9.72,0,0,1,100,51.14v20.7a9.69,9.69,0,0,1-5.82,8.89L77.52,88.05a9.6,9.6,0,0,1-7.82,0Zm.49-71a1.36,1.36,0,0,0-1,0L35.9,13.58,49.84,19,64.1,13.58ZM54.17,41.8l13.89-5.26V21L54.17,26.32ZM12.29,48.69l14.1,5.4,14.1-5.4L26.88,43.54a1.36,1.36,0,0,0-1,0ZM30.56,78.85l13.88-6.11V56.09L30.56,61.42Zm29-30.16,14.1,5.4,14.1-5.4L74.1,43.54a1.33,1.33,0,0,0-1,0ZM90.83,73.1a1.37,1.37,0,0,0,.84-1.26V56.09L77.78,61.42V78.85Z"></path><path d="M68.06,36.54,54.17,41.8V26.32L68.06,21ZM44.44,72.74,30.56,78.85V61.42l13.88-5.33ZM91.67,56.09V71.84a1.37,1.37,0,0,1-.84,1.26l-13,5.75V61.42Z"></path></g></svg>