<svg viewBox="0 0 100 100" xmlns="http://www.w3.org/2000/svg" class="inline-flex h-4-em text-dark-primary-acc">
    <g xmlns="http://www.w3.org/2000/svg" fill="#14b89f" fill-rule="evenodd">
        <path d="m43.14 25c-8.8 14-20.45 35.44-20.45 35.44l-19.38-6a4.78 4.78 0 0 1 -1.08-.44 4.69 4.69 0 0 1 -1.54-6.46l10.69-17.34a10.94 10.94 0 0 1 9.31-5.2z" opacity=".4"></path>
        <path d="m75 56.85v22.47a10.93 10.93 0 0 1 -5.2 9.31l-17.35 10.67a4.78 4.78 0 0 1 -1.08.49 4.68 4.68 0 0 1 -5.85-3.1l-6-19.39s5.39-2.91 12.48-6.92 16-9.13 23-13.53z" opacity=".4"></path>
        <path d="m89.06 0h-1.16c-14.5 0-29.75 4.58-38.66 16-8 10.2-26.54 44.42-26.54 44.42a7.32 7.32 0 0 0 .77.9l15.18 15.2a7.37 7.37 0 0 0 .91.78s34.21-18.59 44.44-26.54c11.44-8.91 16-24.16 16-38.66v-1.16a10.94 10.94 0 0 0 -10.94-10.94zm-17.18 37.5a9.38 9.38 0 1 1 9.37-9.38 9.38 9.38 0 0 1 -9.37 9.38z"></path>
    </g>
</svg>