<svg aria-hidden="true" viewBox="0 0 640 512" xmlns="http://www.w3.org/2000/svg" width="5em" height="5em" ariaLabel="Our Policies" fill="#14b89f" class="tw-y4m5rk"><path xmlns="http://www.w3.org/2000/svg" d="m112 448h176v-294.76a79.91 79.91 0 0 1 -43.38-47.47l-132-44.26a16 16 0 0 1 -10.08-20.26l10.16-30.34a16 16 0 0 1 20.3-10.08l117.89 39.54c13.81-24.01 39.42-40.37 69.11-40.37a80 80 0 0 1 80 80 79.06 79.06 0 0 1 -1 10l128.4 43.05a16 16 0 0 1 10.08 20.26l-10.18 30.37a16 16 0 0 1 -20.3 10.08l-142-47.63a80.48 80.48 0 0 1 -13 7.12v342.75a16 16 0 0 1 -16 16h-224a16 16 0 0 1 -16-16v-32a16 16 0 0 1 16-16z" opacity=".4"></path><path xmlns="http://www.w3.org/2000/svg" d="m0 304c0 44.18 57.31 80 128 80s128-35.82 128-80c0-15.67 2.08-7.25-85-181.51-17.68-35.36-68.22-35.29-85.87 0-86.45 172.78-85.13 165.33-85.13 181.51zm56-16 72-144 72 144zm328 144c0 44.18 57.31 80 128 80s128-35.82 128-80c0-15.67 2.08-7.25-85.05-181.51-17.68-35.36-68.22-35.29-85.87 0-86.4 172.78-85.08 165.33-85.08 181.51zm56-16 72-144 72 144z"></path></svg>