<svg aria-hidden="true" viewBox="0 0 640 512" xmlns="http://www.w3.org/2000/svg" width="5em" height="5em" ariaLabel="Support Tickets" fill="#8b5cf6" class="tw-wq8nvg"><path xmlns="http://www.w3.org/2000/svg" d="m224 256c71 0 128-57 128-128s-57-128-128-128-128 57-128 128 57 128 128 128zm97 54c-15-4-30-6-46-6h-102c-95 0-173 78-173 173 0 19 16 35 35 35h378c3 0 6-1 9-2-52-40-97-110-101-200z" opacity=".4"></path><path xmlns="http://www.w3.org/2000/svg" d="m622 271-115-45c-4-2-13-4-22 0l-115 45c-11 4-18 14-18 25 0 112 69 189 133 214 9 4 18 2 22 0 51-20 133-89 133-214 0-11-7-21-18-25zm-126 191v-189l95 38c-5 87-60 135-95 151z"></path></svg>