<svg viewBox="0 0 252.72 60" height="1em" xmlns="http://www.w3.org/2000/svg" xmlns:xlink="http://www.w3.org/1999/xlink" aria-label="Return to Ultra.cc homepage" class="h-10 text-dark-neutral-txt_bold"><linearGradient id="a-navLogo" gradientTransform="matrix(.04 0 0 .04 -101.92 -396.85)" gradientUnits="userSpaceOnUse" x1="3198" x2="3619.5" y1="10725" y2="10725" class="transition-colors text-dark-primary-acc"><stop offset="0" stop-color="#14b89f" stop-opacity="0"></stop> <stop offset="1" stop-color="#14b89f" stop-opacity=".5"></stop></linearGradient> <linearGradient id="b-navLogo" x1="3151.34" x2="3373.99" xlink:href="#a-navLogo" y1="10644.32" y2="10258.67"></linearGradient> <g class="transition-colors text-dark-primary-acc"><path d="m0 15 26-15 9.14 5.26-26 15z" fill="#14b89f" opacity=".5"></path> <path d="m0 45v-30l9.14 5.26v19.46l16.86 9.74v10.54z" fill="#14b89f"></path> <path d="m26 60v-10.54l26-15v10.54z" fill="#14b89f" opacity=".75"></path> <path d="m42.86 20.26-16.86 9.74v14l16.86-9.7z" fill="url(#a-navLogo)" opacity=".75"></path> <path d="m42.86 20.26v14l9.14-5.26v-14z" fill="#14b89f" opacity=".75"></path> <path d="m30.7 13.24-16.86 9.76 12.16 7 16.86-9.74z" fill="url(#b-navLogo)" opacity=".5"></path> <path d="m39.82 8-9.14 5.26 12.18 7 9.14-5.26z" fill="#14b89f" opacity=".5"></path></g> <g fill="#fff" class="transition-colors"><path d="m92.81 41.32a14.54 14.54 0 0 1 -9 2.62 14.52 14.52 0 0 1 -9.05-2.62c-2.3-1.74-3.44-4.35-3.44-7.81v-16.87h8.22v16.12a5.14 5.14 0 0 0 1.09 3.53 4.75 4.75 0 0 0 6.36 0 5.14 5.14 0 0 0 1.01-3.53v-16.12h8.23v16.87c.02 3.49-1.13 6.07-3.42 7.81z"></path> <path d="m99.69 43.34v-26.7h8.31v20h13v6.73z"></path> <path d="m140.63 23.37h-8.07v20h-8.23v-20h-8.08v-6.73h24.38z"></path> <path d="m159.07 43.34-4.52-8.45h-3.22v8.45h-8.23v-26.7h14.17q4.9 0 7.67 2.4a8.4 8.4 0 0 1 2.77 6.73 9.27 9.27 0 0 1 -1.24 4.92 8 8 0 0 1 -3.55 3.12l5.69 9.53zm-7.74-14.62h4.49a3.86 3.86 0 0 0 2.61-.78 2.74 2.74 0 0 0 .9-2.17 2.73 2.73 0 0 0 -.9-2.17 3.86 3.86 0 0 0 -2.61-.79h-4.49z"></path> <path d="m188.8 43.34-1.5-5h-9.16l-1.46 5h-8.6l9.13-26.7h11.21l9.13 26.7zm-9-10.62h5.76l-2.84-9.46h-.15z"></path> <path d="m203.24 43.77a3.6 3.6 0 0 1 -2.63-1.08 3.54 3.54 0 0 1 -1.09-2.64 3.46 3.46 0 0 1 1.09-2.59 3.71 3.71 0 0 1 5.21 0 3.51 3.51 0 0 1 1.18 2.59 3.58 3.58 0 0 1 -.54 1.88 4 4 0 0 1 -1.36 1.34 3.51 3.51 0 0 1 -1.86.5z"></path> <path d="m221.84 35.34 7.85.64a10.15 10.15 0 0 1 -3.4 5.7q-2.58 2.15-7.41 2.15-5.24 0-8.07-2.73t-2.81-7.67c0-3.31.95-5.89 2.85-7.72s4.54-2.71 8.03-2.71q4.78 0 7.35 2.12a9.72 9.72 0 0 1 3.35 5.25l-7.78 1c-.5-2-1.47-3-2.92-3a2.58 2.58 0 0 0 -2.28 1.16 7.32 7.32 0 0 0 -.78 3.92 7.23 7.23 0 0 0 .78 3.91 2.59 2.59 0 0 0 2.28 1.14q2.28-.02 2.96-3.16z"></path> <path d="m244.87 35.34 7.85.64a10.1 10.1 0 0 1 -3.4 5.7q-2.58 2.15-7.4 2.15c-3.49 0-6.19-.91-8.08-2.73s-2.84-4.38-2.84-7.67.95-5.89 2.84-7.72 4.59-2.71 8.08-2.71q4.79 0 7.35 2.12a9.7 9.7 0 0 1 3.34 5.25l-7.78 1c-.49-2-1.47-3-2.91-3a2.58 2.58 0 0 0 -2.28 1.16 7.21 7.21 0 0 0 -.79 3.92 7.12 7.12 0 0 0 .79 3.91 2.59 2.59 0 0 0 2.28 1.14q2.28-.02 2.95-3.16z"></path></g></svg>