<svg viewBox="0 0 52 60" height="1em" xmlns="http://www.w3.org/2000/svg" xmlns:xlink="http://www.w3.org/1999/xlink" aria-label="Return to Ultra.cc homepage" class="h-10"><linearGradient id="a-footerLogo" gradientTransform="matrix(.04 0 0 .04 -101.92 -396.85)" gradientUnits="userSpaceOnUse" x1="3198" x2="3619.5" y1="10725" y2="10725" class="transition-colors text-dark-null-acc"><stop offset="0" stop-color="#d4d6df" stop-opacity="0"></stop> <stop offset="1" stop-color="#d4d6df" stop-opacity=".5"></stop></linearGradient> <linearGradient id="b-footerLogo" x1="3151.34" x2="3373.99" xlink:href="#a-footerLogo" y1="10644.32" y2="10258.67"></linearGradient> <g class="transition-colors text-dark-null-acc"><path d="m0 15 26-15 9.14 5.26-26 15z" fill="#d4d6df" opacity=".5"></path> <path d="m0 45v-30l9.14 5.26v19.46l16.86 9.74v10.54z" fill="#d4d6df"></path> <path d="m26 60v-10.54l26-15v10.54z" fill="#d4d6df" opacity=".75"></path> <path d="m42.86 20.26-16.86 9.74v14l16.86-9.7z" fill="url(#a-footerLogo)" opacity=".75"></path> <path d="m42.86 20.26v14l9.14-5.26v-14z" fill="#d4d6df" opacity=".75"></path> <path d="m30.7 13.24-16.86 9.76 12.16 7 16.86-9.74z" fill="url(#b-footerLogo)" opacity=".5"></path> <path d="m39.82 8-9.14 5.26 12.18 7 9.14-5.26z" fill="#d4d6df" opacity=".5"></path></g></svg>